<svg height="30" viewBox="0 0 30 30" width="30" xmlns="http://www.w3.org/2000/svg"><g fill="#359cde" transform="translate(5.1 5.32)"><path d="m19.8 13.3568672c0 .7299704-.6523097 1.3275965-1.45 1.3275965s-1.45-.5970327-1.45-1.3275965v-4.34480709c0-.72997032.6523097-1.32759643 1.45-1.32759643s1.45.59762611 1.45 1.32759643z"/><path d="m2.9 13.3568672c0 .7299704-.65230971 1.3275965-1.45 1.3275965s-1.45-.5970327-1.45-1.3275965v-4.34480709c0-.72997032.65230971-1.32759643 1.45-1.32759643s1.45.59762611 1.45 1.32759643z"/><path d="m5.91245117.07716387c.31826513-.17917148.68491211-.00654639.75366211.11651611l.78491211 1.53710938c.771375-.3059375 1.53459961-.04632568 2.44897461-.04632568.8662494-.00324578 1.5764991-.25489738 2.3838501.05908203l.9399414-1.39819336c.0680625-.1230625.4536256-.22716744.6948242-.04943848s.2652832.46324121.1965332.58630371l-.9973755 1.36657715c1.7661875.8229375 2.6032891 2.09187728 2.6032891 3.87250228 0 .1808125-.012375.3581875-.0364375.5335h-11.6249375c-.023375-.1753125-.0364375-.353375-.0364375-.5335 0-1.775125.77131055-3.07307601 2.52787305-3.89807601l-.85925293-1.43280029c-.06875-.1230625-.09768408-.53408536.22058105-.71325684zm1.46671553 3.50313314c-.2456201 0-.47258244.13103675-.59539249.34374999-.12281006.21271324-.12281006.47478677 0 .68750002.12281005.21271324.34977239.34374999.59539249.34374999.37969575 0 .68749997-.30780425.68749997-.6875 0-.37969576-.30780422-.6875-.68749997-.6875zm4.8125 0c-.2456201 0-.4725824.13103675-.5953925.34374999-.12281.21271324-.12281.47478677 0 .68750002.1228101.21271324.3497724.34374999.5953925.34374999.3796957 0 .6875-.30780425.6875-.6875 0-.37969576-.3078043-.6875-.6875-.6875z"/><path d="m3.9 7.68446368v7.81554212h.00493682c.06135763.6599122.74475463 1.1844579 1.57272994 1.1844579h8.84466644c.8272701 0 1.5106671-.5245457 1.57273-1.1844579h.0049368v-7.81554212h-11.99929474z"/><path d="m13.9 16.6844637v2.532393c0 .8069542-.6748031 1.467607-1.5 1.467607s-1.5-.6606528-1.5-1.467607v-2.532393z"/><path d="m8.9 16.6844637v2.532393c0 .8069542-.67480315 1.467607-1.5 1.467607s-1.5-.6606528-1.5-1.467607v-2.532393z"/></g></svg>