<svg height="30" viewBox="0 0 30 30" width="30" xmlns="http://www.w3.org/2000/svg"><g fill="#359cde" fill-rule="evenodd"><path d="m12.99 3c5.53 0 10.01 4.48 10.01 10 0 .3377013-.0167674.6715103-.0495168 1.0006391l-2.0180916.0002255c.0434933-.3280091.0676084-.6620253.0676084-1.0008646 0-.69-.1-1.36-.26-2h-3.38c.08.66.14 1.32.14 2 0 .3376248-.0147912.6703191-.0394775 1.0005311l-1.4605225-.0005311c-.1921619 0-.377994.0271007-.553883.0776885.0337843-.3546891.053883-.7133176.053883-1.0776885 0-.68-.07-1.35-.16-2h-4.68c-.09.65-.16 1.32-.16 2s.07 1.34.16 2l3.6076063-.0000725c-.170196.2941898-.2676063.6357554-.2676063 1.0000725v1h-2.91c.3822222 1.2711111.9382716 2.4632099 1.6400549 3.5552263l.2699451.4047737c.3705619-.5357521.7052449-1.0974166 1.0004895-1.6823239l.000234 3.6719755c-.3323743.0332963-.6695506.0503484-1.0107235.0503484-5.52 0-9.99-4.48-9.99-10s4.47-10 9.99-10zm-3.96 14h-2.95c.96 1.66 2.49 2.93 4.33 3.56-.6-1.11-1.06-2.31-1.38-3.56zm-.39-6h-3.38c-.16.64-.26 1.31-.26 2s.1 1.36.26 2h3.38c-.08-.66-.14-1.32-.14-2s.06-1.34.14-2zm6.95-5.56c.6 1.11 1.06 2.31 1.38 3.56h2.95c-.96-1.65-2.49-2.93-4.33-3.56zm-2.59-.4c-.83 1.2-1.48 2.53-1.91 3.96h3.82c-.43-1.43-1.08-2.76-1.91-3.96zm-2.59.4c-1.84.63-3.37 1.9-4.33 3.56h2.95c.32-1.25.78-2.45 1.38-3.56z" fill-rule="nonzero"/><path d="m24 15c1.1045695 0 2 .8954305 2 2v7c0 1.1045695-.8954305 2-2 2h-7c-1.1045695 0-2-.8954305-2-2v-7c0-1.1045695.8954305-2 2-2zm-1.5286133 2.2c-.3164062 0-.5581055.1230469-.8261719.421875l-1.9467773 2.2016602h-.0351563v-1.6479493c0-.6240234-.3383789-.9755859-.9316406-.9755859s-.9316406.3515625-.9316406.9755859v4.6098633c0 .6240235.3383789.975586.9316406.975586s.9316406-.3515625.9316406-.975586v-.7954101l.553711-.5712891 1.4238281 1.8061523c.3032227.3867188.5756836.5361329.9755859.5361329.5097657 0 .8964844-.3911133.8964844-.900879 0-.2636718-.1362304-.5449218-.4570312-.9404296l-1.3710938-1.6962891 1.3095703-1.3974609c.2636719-.28125.3603516-.4833985.3603516-.7646485 0-.4790039-.3955078-.8613281-.8833008-.8613281z"/></g></svg>