<svg height="30" viewBox="0 0 30 30" width="30" xmlns="http://www.w3.org/2000/svg"><path d="m23 8c1.1045695 0 2 .8954305 2 2v12h1c.5522847 0 1 .4477153 1 1s-.4477153 1-1 1h-21c-.55228475 0-1-.4477153-1-1s.44771525-1 1-1h1v-12c0-1.1045695.8954305-2 2-2zm-5.549515 5.1538625c-.6645023-.0450343-1.2587572.2981268-1.8795922.417918-.4176872-.0279213-.9141654-.3638769-1.6232843-.3999043-2.9238101.1441096-3.3035257 3.9720222-.7309525 6.4849342.4556587.3963016.857208.4863701 1.6137913.1765344.607545-.2422844 1.1334511-.2278734 1.7087203 0 .5410947.2233699 1.1087695.2972261 1.6232842-.1765344.6483644-.5431132 1.0356743-1.2861786 1.3375482-2.0382508-1.5084202-.5764386-1.8976287-2.6300011-.2553587-3.5667139-.3987014-.5377091-.9958042-.8367366-1.7941563-.8979832zm.5246127-2.7538625c-1.6541168.1264586-2.6030243.9505661-2.4871216 2.5186523 1.1160995.177042 2.7146342-.7102948 2.4871216-2.5186523z" fill="#359cde" fill-rule="evenodd"/></svg>