<svg height="30" viewBox="0 0 30 30" width="30" xmlns="http://www.w3.org/2000/svg"><path d="m20.9905165 24.6543351c-1.157658 1.1054411-2.4349263.9331099-3.6523895.4119134-1.2943556-.5317046-2.4776443-.5653302-3.8446205 0-1.7023125.72295-2.6057984.5127901-3.63103049-.4119134-5.78828978-5.8634614-4.93392966-14.79525748 1.64464319-15.13151333 1.5955175.08406396 2.7125934.86796043 3.6523895.93311003 1.3968788-.2795127 2.7339524-1.08022196 4.2290826-.97514201 1.7962921.14290874 3.1397734.84063961 4.0368515 2.09529431-3.6951075 2.185663-2.8193884 6.9773089.5745572 8.3223323-.6792163 1.7548352-1.5506636 3.4886544-3.0116194 4.7706298zm-5.9591618-15.1945613c-.1730079-2.60598285 1.9735719-4.74961389 4.4426726-4.9597738.3396081 3.00528667-2.7766704 5.25399767-4.4426726 4.9597738z" fill="#359cde"/></svg>